<?xml version="1.0" encoding="UTF-8" standalone="no"?>
<!-- Created with Inkscape (http://www.inkscape.org/) -->

<svg
   width="256"
   height="256"
   viewBox="0 0 256 256"
   version="1.1"
   id="svg1"
   xmlns="http://www.w3.org/2000/svg"
   xmlns:svg="http://www.w3.org/2000/svg">
  <defs
     id="defs1" />
  <g
     id="layer1">
    <g
       id="g35"
       transform="matrix(17.337532,0,0,21.860014,-12.359768,-10.952458)">
      <path
         d="m 8.0625,2.2011719 c -0.028082,0 -0.056635,7.816e-4 -0.083984,0.00391 -0.027349,0.00312 -0.053598,0.00758 -0.080078,0.013672 -0.02648,0.0061 -0.05265,0.014524 -0.078125,0.023437 -0.025475,0.00891 -0.049886,0.019671 -0.074219,0.03125 -0.048666,0.023157 -0.09539,0.051089 -0.1386718,0.083984 -0.043282,0.032895 -0.084288,0.069921 -0.1210938,0.1113281 -0.036806,0.041407 -0.070369,0.088027 -0.099609,0.1367188 -0.02924,0.048692 -0.053635,0.099547 -0.074219,0.1542968 -0.020584,0.05475 -0.036038,0.1122942 -0.046875,0.171875 -0.010837,0.059581 -0.017578,0.1223618 -0.017578,0.1855469 0,0.031592 0.00381,0.064339 0.00977,0.1015625 0.00596,0.037223 0.014268,0.077301 0.025391,0.1191406 0.011123,0.04184 0.025523,0.08737 0.041016,0.1328125 0.015493,0.045443 0.031713,0.09064 0.050781,0.1386719 0.038136,0.096063 0.08319,0.1965413 0.1308594,0.296875 0.047669,0.1003337 0.09759,0.2003832 0.1484375,0.296875 0.1016948,0.1929835 0.2049789,0.3710586 0.28125,0.5 C 8.011818,4.8320664 8.0625,4.9121094 8.0625,4.9121094 c 0,0 0.050682,-0.080043 0.1269531,-0.2089844 0.076271,-0.1289414 0.1776021,-0.3070165 0.2792969,-0.5 C 8.519597,4.106633 8.5695181,4.0065837 8.6171875,3.90625 8.6648565,3.8059163 8.7099115,3.7054382 8.7480469,3.609375 8.7671149,3.561343 8.7852889,3.516146 8.8007809,3.4707031 8.8162729,3.4252601 8.8287209,3.3797311 8.8398439,3.3378906 8.8509669,3.2960506 8.8612289,3.2559736 8.8671879,3.21875 8.8731462,3.1815266 8.875,3.14878 8.875,3.1171875 8.875,3.0540024 8.8702123,2.9912214 8.859375,2.9316406 8.8485377,2.8720598 8.8330841,2.8145153 8.8125,2.7597656 8.7919159,2.7050159 8.7655686,2.6541605 8.7363281,2.6054688 8.7070877,2.556777 8.673525,2.5101571 8.6367188,2.46875 8.5999125,2.4273429 8.5608597,2.3903174 8.5175781,2.3574219 8.4742965,2.3245263 8.4275726,2.2965947 8.3789063,2.2734375 8.3545731,2.2618589 8.3301624,2.2511015 8.3046875,2.2421875 8.2792126,2.2332735 8.2530428,2.224846 8.2265625,2.21875 8.2000825,2.21265 8.1718805,2.208203 8.1445315,2.205078 8.1171815,2.201958 8.0905825,2.201168 8.0625005,2.201168 Z"
         style="fill:#cbd5e1;stroke-width:1.18263;stroke-linejoin:round;paint-order:stroke fill markers"
         id="path29" />
      <path
         d="m 3.1269531,5.0078125 c -0.033654,3.6e-5 -0.065933,0.00323 -0.097656,0.00977 -0.031723,0.00654 -0.062659,0.016919 -0.091797,0.029297 -0.029138,0.012378 -0.056132,0.027357 -0.082031,0.044922 -0.025899,0.017564 -0.050259,0.036499 -0.072266,0.058594 -0.022007,0.022095 -0.043086,0.046297 -0.060547,0.072266 -0.017461,0.025969 -0.032661,0.054797 -0.044922,0.083984 -0.012261,0.029187 -0.020936,0.060048 -0.027344,0.091797 -0.00641,0.031749 -0.00986,0.064002 -0.00977,0.097656 v 4.5292975 c 3.6e-5,0.03356 0.00326,0.06601 0.00977,0.09766 0.0065,0.03164 0.016981,0.06272 0.029297,0.0918 0.012316,0.02908 0.02744,0.05617 0.044922,0.08203 0.017481,0.02586 0.036597,0.05027 0.058594,0.07227 0.021997,0.022 0.046403,0.04111 0.072266,0.05859 0.025862,0.01748 0.052953,0.03261 0.082031,0.04492 0.029078,0.01232 0.060154,0.0228 0.091797,0.0293 0.031643,0.0065 0.064097,0.0097 0.097656,0.0098 h 9.9374999 c 0.03356,-3.6e-5 0.06601,-0.0033 0.09766,-0.0098 0.03164,-0.0065 0.06272,-0.01698 0.0918,-0.0293 0.02908,-0.01232 0.05617,-0.02744 0.08203,-0.04492 0.02586,-0.01748 0.05027,-0.0366 0.07226,-0.05859 0.022,-0.022 0.04111,-0.0464 0.05859,-0.07227 0.01748,-0.02586 0.03261,-0.05295 0.04492,-0.08203 0.01232,-0.02908 0.0228,-0.06015 0.0293,-0.0918 0.0065,-0.03164 0.0097,-0.0641 0.0098,-0.09766 V 5.4960937 c 9.9e-5,-0.033654 -0.0034,-0.065907 -0.0098,-0.097656 -0.0064,-0.031749 -0.01508,-0.06261 -0.02734,-0.091797 -0.01226,-0.029187 -0.02746,-0.058015 -0.04492,-0.083984 -0.01746,-0.025969 -0.03854,-0.050171 -0.06055,-0.072266 -0.02201,-0.022095 -0.04637,-0.041029 -0.07226,-0.058594 -0.0259,-0.017565 -0.05289,-0.032544 -0.08203,-0.044922 -0.02914,-0.012378 -0.06007,-0.022762 -0.0918,-0.029297 -0.03172,-0.00654 -0.064,-0.00973 -0.09766,-0.00977 z m 2.3046875,2.0039062 a 0.66589051,0.6543023 0 0 1 0.095703,0.00586 0.66589051,0.6543023 0 0 1 0.091797,0.019531 0.66589051,0.6543023 0 0 1 0.089844,0.033203 0.66589051,0.6543023 0 0 1 0.083984,0.044922 0.66589051,0.6543023 0 0 1 0.076172,0.054687 0.66589051,0.6543023 0 0 1 0.066406,0.066406 0.66589051,0.6543023 0 0 1 0.056641,0.074219 0.66589051,0.6543023 0 0 1 0.044922,0.082031 0.66589051,0.6543023 0 0 1 0.033203,0.087891 0.66589051,0.6543023 0 0 1 0.021484,0.091797 0.66589051,0.6543023 0 0 1 0.00586,0.09375 0.66589051,0.6543023 0 0 1 -0.050781,0.25 A 0.66589051,0.6543023 0 0 1 5.9023437,8.1269531 0.66589051,0.6543023 0 0 1 5.6875,8.2695313 0.66589051,0.6543023 0 0 1 5.4316406,8.3203125 0.66589051,0.6543023 0 0 1 5.1777344,8.2695313 0.66589051,0.6543023 0 0 1 4.9609375,8.1269531 0.66589051,0.6543023 0 0 1 4.8164062,7.9160156 0.66589051,0.6543023 0 0 1 4.765625,7.6660156 0.66589051,0.6543023 0 0 1 4.8164062,7.4140625 0.66589051,0.6543023 0 0 1 4.9609375,7.203125 0.66589051,0.6543023 0 0 1 5.1777344,7.0605469 0.66589051,0.6543023 0 0 1 5.4316406,7.0117187 Z m 5.2246094,0 a 0.66589051,0.6543023 0 0 1 0.0957,0.00586 0.66589051,0.6543023 0 0 1 0.0918,0.019531 0.66589051,0.6543023 0 0 1 0.08984,0.033203 0.66589051,0.6543023 0 0 1 0.08398,0.044922 0.66589051,0.6543023 0 0 1 0.07617,0.054687 0.66589051,0.6543023 0 0 1 0.06641,0.066406 0.66589051,0.6543023 0 0 1 0.05664,0.074219 0.66589051,0.6543023 0 0 1 0.04687,0.082031 0.66589051,0.6543023 0 0 1 0.0332,0.087891 0.66589051,0.6543023 0 0 1 0.01953,0.091797 0.66589051,0.6543023 0 0 1 0.0059,0.09375 0.66589051,0.6543023 0 0 1 -0.05078,0.25 0.66589051,0.6543023 0 0 1 -0.144531,0.2109375 0.66589051,0.6543023 0 0 1 -0.214844,0.1425782 0.66589051,0.6543023 0 0 1 -0.255859,0.050781 A 0.66589051,0.6543023 0 0 1 10.40237,8.2695314 0.66589051,0.6543023 0 0 1 10.185573,8.1269532 0.66589051,0.6543023 0 0 1 10.041042,7.9160157 0.66589051,0.6543023 0 0 1 9.99026,7.6660157 0.66589051,0.6543023 0 0 1 10.041042,7.4140626 0.66589051,0.6543023 0 0 1 10.185573,7.2031251 0.66589051,0.6543023 0 0 1 10.40237,7.060547 0.66589051,0.6543023 0 0 1 10.656276,7.011719 Z M 7.0878906,8.9863281 h 1.8886719 0.025391 0.085937 v 0.00781 a 0.5,0.26030446 0 0 1 0.2011719,0.048828 0.5,0.26030446 0 0 1 0.1386719,0.091797 0.5,0.26030446 0 0 1 0.048828,0.1113282 0.5,0.26030446 0 0 1 -0.050781,0.1132812 0.5,0.26030446 0 0 1 -0.1386719,0.089844 0.5,0.26030446 0 0 1 -0.1992188,0.048828 v 0.00977 H 8.9765625 7.0878906 v -0.00977 A 0.5,0.26030446 0 0 1 6.8945312,9.4453125 0.5,0.26030446 0 0 1 6.7617187,9.3574219 0.5,0.26030446 0 0 1 6.7148437,9.2460938 0.5,0.26030446 0 0 1 6.7617187,9.1367188 0.5,0.26030446 0 0 1 6.8945312,9.046875 0.5,0.26030446 0 0 1 7.0878906,8.9941406 Z"
         style="fill:#cbd5e1;stroke-linejoin:round;paint-order:stroke fill markers"
         id="path30" />
      <path
         d="m 2.0683594,6.4042969 c -0.046804,0 -0.093089,0.00318 -0.1386719,0.00781 -0.045582,0.00463 -0.090632,0.0105 -0.1347656,0.019531 -0.044134,0.00903 -0.086448,0.019997 -0.1289063,0.033203 -0.042458,0.013206 -0.084445,0.029722 -0.125,0.046875 -0.040555,0.017154 -0.080715,0.035767 -0.1191406,0.056641 -0.038425,0.020874 -0.07526,0.043992 -0.1113281,0.068359 -0.036068,0.024367 -0.070032,0.050492 -0.1035157,0.078125 -0.033484,0.027633 -0.066984,0.055266 -0.097656,0.085937 -0.030672,0.030672 -0.058304,0.064173 -0.085937,0.097656 -0.0276331,0.033484 -0.0537579,0.067448 -0.078125,0.1035156 -0.0243671,0.036068 -0.0474855,0.072903 -0.0683594,0.1113281 -0.0208739,0.038425 -0.0394872,0.078585 -0.0566406,0.1191407 -0.0171535,0.040555 -0.0336691,0.082542 -0.046875,0.125 -0.0132059,0.042458 -0.024172,0.084772 -0.0332031,0.1289062 -0.009031,0.044134 -0.0149021,0.089183 -0.0195313,0.1347656 -0.004629,0.045583 -0.007813,0.091868 -0.007813,0.1386719 0,0.046804 0.003183,0.09309 0.007813,0.1386719 0.004629,0.045582 0.0105001,0.090632 0.0195313,0.1347656 0.009031,0.044134 0.0199972,0.088401 0.0332031,0.1308594 0.0132059,0.042458 0.0297215,0.084445 0.046875,0.125 0.0171535,0.040555 0.0357668,0.078762 0.0566406,0.1171875 0.0208739,0.038425 0.0439923,0.07526 0.0683594,0.1113281 0.0243671,0.036068 0.0504919,0.071985 0.078125,0.1054688 0.027633,0.033483 0.055266,0.065031 0.085937,0.095703 0.030672,0.030672 0.064173,0.060258 0.097656,0.087891 0.033484,0.027633 0.067448,0.053758 0.1035157,0.078125 0.036068,0.024367 0.072903,0.047486 0.1113281,0.068359 0.038425,0.020874 0.078585,0.039487 0.1191406,0.056641 0.040555,0.017154 0.082542,0.031716 0.125,0.044922 0.042458,0.013206 0.084772,0.024172 0.1289063,0.033203 0.044134,0.00903 0.089183,0.016855 0.1347656,0.021484 0.045582,0.00463 0.091868,0.00781 0.1386719,0.00781 0.011048,-0.3050844 0.01746,-0.6280128 0.019531,-0.9394531 0.00207,-0.3114404 8.09e-4,-0.6122884 -0.00195,-0.875 C 2.0804204,6.777305 2.0683624,6.4042907 2.0683624,6.4042907 Z"
         style="fill:#cbd5e1;stroke-width:1.85714;stroke-linejoin:round;paint-order:stroke fill markers"
         id="path32" />
      <path
         d="m 14.123047,6.234375 c -0.01105,0.3050844 -0.01746,0.6280128 -0.01953,0.9394531 -0.0021,0.3114404 -8.09e-4,0.6122884 0.002,0.875 0.0055,0.5254232 0.01758,0.8984375 0.01758,0.8984375 0.0468,0 0.09309,-0.00318 0.138672,-0.00781 0.04558,-0.00463 0.09063,-0.0105 0.134765,-0.019531 0.04413,-0.00903 0.08645,-0.019997 0.128907,-0.033203 0.04246,-0.013206 0.08444,-0.029722 0.125,-0.046875 0.04055,-0.017154 0.08071,-0.035767 0.11914,-0.056641 0.03843,-0.020874 0.07526,-0.043992 0.111328,-0.068359 0.03607,-0.024367 0.07003,-0.050492 0.103516,-0.078125 0.03348,-0.027633 0.06698,-0.057219 0.09766,-0.087891 0.03067,-0.030672 0.06026,-0.06222 0.08789,-0.095703 0.02763,-0.033484 0.0518,-0.067448 0.07617,-0.1035156 0.02437,-0.036068 0.04748,-0.074856 0.06836,-0.1132813 0.02087,-0.038425 0.03949,-0.076632 0.05664,-0.1171875 0.01715,-0.040555 0.03367,-0.082542 0.04687,-0.125 0.01321,-0.042458 0.02417,-0.086725 0.0332,-0.1308594 0.009,-0.044134 0.0149,-0.089183 0.01953,-0.1347656 0.0046,-0.045582 0.0078,-0.091868 0.0078,-0.1386719 0,-0.046804 -0.0032,-0.091136 -0.0078,-0.1367187 -0.0046,-0.045582 -0.0105,-0.090632 -0.01953,-0.1347656 -0.009,-0.044134 -0.02,-0.088401 -0.0332,-0.1308594 -0.01321,-0.042458 -0.02972,-0.084445 -0.04687,-0.125 -0.01715,-0.040555 -0.03577,-0.078762 -0.05664,-0.1171875 -0.02087,-0.038425 -0.04399,-0.077213 -0.06836,-0.1132813 -0.02437,-0.036068 -0.04854,-0.070032 -0.07617,-0.1035156 -0.02763,-0.033484 -0.05722,-0.065031 -0.08789,-0.095703 -0.03067,-0.030672 -0.06417,-0.060258 -0.09766,-0.087891 -0.03348,-0.027633 -0.06745,-0.053758 -0.103516,-0.078125 -0.03607,-0.024367 -0.0729,-0.047486 -0.111328,-0.068359 -0.03843,-0.020874 -0.07859,-0.039487 -0.11914,-0.056641 -0.04056,-0.017154 -0.08254,-0.033669 -0.125,-0.046875 -0.04246,-0.013206 -0.08477,-0.024172 -0.128907,-0.033203 -0.04413,-0.00903 -0.08918,-0.014902 -0.134765,-0.019531 -0.04558,-0.00463 -0.09187,-0.00781 -0.138672,-0.00781 z"
         style="fill:#cbd5e1;stroke-width:1.85714;stroke-linejoin:round;paint-order:stroke fill markers"
         id="path31" />
    </g>
  </g>
</svg>
